<?xml version="1.0" encoding="utf-8"?>
<!-- Generator: Adobe Illustrator 27.9.0, SVG Export Plug-In . SVG Version: 6.00 Build 0)  -->
<svg version="1.1" id="Layer_1" xmlns="http://www.w3.org/2000/svg" xmlns:xlink="http://www.w3.org/1999/xlink" x="0px" y="0px"
	 viewBox="0 0 397 570" style="enable-background:new 0 0 397 570;" xml:space="preserve">
<style type="text/css">
	.st0{fill:#FFFFFF;}
</style>
<path class="st0" d="M392.8,156.8c-1.3,2.1-2.4,4.2-3.5,6c-2.9,4.5-5.6,9.1-8.7,13.5c-4.5,6.3-9.4,13.7-16.9,16.6
	c5.9-3.4,10.3-11.3,14.3-16.7c14-19,18.8-44.7,16.7-67.8c-0.8-9-2.9-18.8-6.5-27.2c-1.6,32-11.9,65.9-37.7,86.9
	c-4.1,3.4-8.7,6.2-13.4,8.4c15.4-9.4,24.7-24.3,30-33.6c7.6-18.7,12.7-37.9,10.6-58.4c-2.3-22.1-21.2-52.8-31.7-55.3
	c10.6,16.3,15.2,36.6,14.2,54.6c-4.1,25.5-8.8,62.9-39.7,79.8c27.3-20.4,33-63,32.7-82.8c0,0.1,0,0.2,0,0.3
	c0-3.1-0.3-25.9-13.1-46.5c-9.8-15.6-27-23.7-43.9-28.8c8.8,7.8,15,17,23,28.6c5.9,10,20.4,40.5,9.8,86
	c-5.9,25.4-18.8,39.2-34.1,45.6c15.2-9.8,27.1-26.4,30.3-46.2c2.4-15.1,4.2-43-3.2-64.2c-3.6-10.3-9.6-18.3-13.9-24.3
	c-2-2.8-4.7-5-7.2-7.5C292,15.1,281,9.6,269.3,6c-4.3-1.3-6.7-2.9-12.7-3.9c-4.9-0.8-10,0-6,2c1.4,0.7,4.4,3,5.5,4
	c22.3,19,36.9,43.5,42.7,71.4c2.8,13.6,5.3,24.9,3.8,37.6c-2,17-3,38-33,51c-2.2,0.9-4.4,1.7-6.6,2.3c-0.3,0-0.5,0-0.8-0.1
	c-1.6,0.2-3.2,0.4-4.8,0.4c-2-0.1-4.1-0.4-6-0.7c-0.5-0.3-0.9-0.6-1.4-0.9c-11.6-7.4-17.4-16.9-17.1-30.6c2.5,2.5,5.2,5.5,6,9.1
	c-1.9-12.2-5.4-25.7-15.6-33.8c7.8,0,15.6-0.6,23.4-1.4c-10.7-3.3-20.3-9-30.3-13.7c9.1-1.5,18.2-3.7,26.2-8.3
	c-10.5-0.7-21.3-1.1-31.5-3.7c-3.1-0.8-8.8-2-11-4.8c-0.4-0.4-1.1-0.8-1.5-1.1c5-5.8,9.2-13.9,1.4-19.3c1.2,12-5,14.6-15.5,13.9
	c-14.1-0.9-30.8-2.6-43.7,4.4c-2.9,1.6-7.4,4.2-8.1,7.8c-10.5,4.1-21.1,9.2-24.9,20.7c0.2,0.6,24.7,0.2,37,0.7
	c9.5,0.3,19.9,0.4,28.8,4.3c21.4,9.2,12.1,36.7,2.2,51.1c-0.6,0.9-1.3,1.8-1.9,2.7c-0.1,0-0.2,0.1-0.4,0.1c-1.3,1-2.7,1.8-4.2,2.5
	c-25.8,3.3-46.3-2.6-64-28.5c-2.9-4.2-5.6-8.7-7.2-13.5c-1.4-4.4-3.3-10.2-4.3-19.2c-0.6-5.1,0.1-20.9,1-26
	c3-16,15.8-51.5,45.5-74.2c1.7-1.3,8.5-4.8,8.5-6.8c-3-1-6-1-13,1c-4.3,1.3-8.7,2.4-13,3.9C107.3,12,96.1,22.4,84.1,38.8
	c-10.1,18.6-26.5,52.9-2,101c9,17.6,21.4,28.1,34.6,33.7c-15.3-4.3-30.1-14.5-40.2-34.4c-24.5-48.1-4-93.9-4.4-93.4
	c0.1-0.2,5.4-12.1,9.2-18.6c2.2-3.7,5.1-7.9,8-11c2.7-2.9,10.4-8.8,13-12C84,8.4,66.5,19.8,56.5,36.3C41.3,61.2,44.3,90.4,44.3,90.2
	c-0.5,10.5,1,37,23.1,70c6.1,9.1,14.2,17.1,23.3,22.6c-10.2-4.7-19.5-12-26.6-22c-22.4-31.5-23.1-62-24.1-75
	c0-10.1,0.9-17.5,2.1-27.5c1.2-9.8,4.7-19.4,7.5-30.3C35.5,46.1,23,63.4,20.6,86.5c-2.3,22.7,3.6,43.1,14,62.7
	c-0.3-0.4-0.6-0.8-0.8-1.2c4.4,8.3,14.1,26.7,31.2,39.5c-11.5-6.3-21.7-14.9-28.9-25.5c-13.9-20.5-17.9-40.1-20.9-56.1
	c-0.7-3.9-2.2-25.1-3-29c-6.5,16.8-11.2,34.6-8.7,52.7c2.1,15.4,7,31.1,15.8,44c4.9,7.2,11,13.4,17,19.6
	c-9.4-5.2-16.9-13.1-22.9-21.9c-5-7.4-7.6-16.1-12.3-23.5c-0.4,31.9,18.6,66.9,48,80.6c9.8,4.6,20.1,7.9,30.4,11.3
	c-15.2-0.1-29.2-1.7-40.9-12.2c0.6,9.9,9.2,15,16.8,20c7.8,5.1,16.6,8.3,25.6,10.5c10.8,2.6,22,3.3,33.1,3.7
	c10.7,0.3,21.8-0.9,32.4,1.4c10.3,2.3,19.3,8.7,25,17.5c-5.6,10.4-11.2,20.9-12.7,32.8c-1.3,9.9-0.3,19.8,0.8,29.7
	c0.8,7,1.5,14.1,2.2,21.1c8.9-10.6,9.8-26.3,11.5-39.4c1.7,5.7-0.2,13.2-0.2,19.1c-0.1,9,0.6,17.9,2.2,26.7
	c3.3,18.5,11.4,35.9,13.7,54.5c0.7,5.5,0.8,11,0.4,16.4c-0.4,4.5-2.7,9.8-1,14.1c9.5-13.8,13.8-25.5,12.4-42.3
	c-1.4-16.9-4.9-33.2-7.9-49.9c-1.6-9.2-1.4-18.2-0.4-27.4c-0.9,22.9,7.7,45.2,16.7,65.9c2.4-14.8,7.1-28.9,10.2-43.6
	c3.3-15.3,2.9-29.1-1.9-44c7,4.8,9.4,13.7,10.6,21.7c8.2-13.5,5.2-24.2,1.2-38.7c-3.9-14.3-2.6-27.6,13-33.1
	c13.9-4.9,29.5-2.8,43.9-2.9c15.7-0.1,31.9-1.6,46.7-7.2c13.8-5.3,22.4-14.5,29.4-27.2c-15.9,9.4-30.5,16.3-49.2,12.5
	c17.1-3.7,34.1-7.9,48.3-18.6c14-10.6,25.4-26,31.1-42.7c2.9-8.5,3.9-17.3,4.6-26.2C395.3,153.1,394,154.9,392.8,156.8z"/>
</svg>
